<svg width="81" height="100" viewBox="0 0 81 100" fill="none" xmlns="http://www.w3.org/2000/svg">
<path d="M79.8213 76.2125C75.1045 78.0439 70.4464 73.2478 65.3667 74.6997C62.5911 75.4928 60.2834 77.3654 58.9988 79.8896C55.4029 77.3654 51.9939 74.6639 48.7912 71.7781C52.5846 72.5676 56.5559 72.8665 59.9204 70.5356C63.3437 68.1618 64.7671 63.9046 67.9626 61.2765C69.0871 60.351 67.6495 58.9385 66.5392 59.4201C63.5252 60.7251 57.5273 57.2521 54.2927 59.0871C53.5774 55.4422 51.5455 52.0192 49.736 48.8076C49.2396 47.925 47.8447 48.317 47.8482 49.3231C47.8642 55.1199 40.338 63.62 45.6046 68.783C40.8611 64.1266 36.5998 59.0495 32.8741 53.5391C36.4699 53.4604 39.5142 50.8484 40.8006 47.3073C42.8325 41.7182 39.7758 35.9 37.1372 31.1004C36.7084 30.3198 35.5447 30.5311 35.3028 31.342C34.0181 35.6278 30.4632 38.6748 29.5024 43.1361C29.1608 44.7222 29.1074 46.2762 29.2871 47.7925C26.2891 42.6259 23.6914 37.146 21.5741 31.317C21.5883 31.3044 21.5972 31.2883 21.6097 31.2758C24.6451 33.3346 29.0398 32.0313 31.2336 29.0183C34.7779 24.1507 32.9986 17.7828 31.3333 12.584C31.0628 11.7372 29.5487 11.5259 29.4081 12.584C28.7783 17.2905 21.3677 21.041 19.6881 25.6509C19.4479 24.8542 19.2362 24.0361 19.0066 23.2305C19.4176 22.9637 19.5653 22.3622 19.012 22.0292C18.8821 21.9523 18.7433 21.8914 18.6099 21.818C18.4978 21.3991 18.3661 20.9945 18.2593 20.5702C18.2736 20.5559 18.2896 20.5523 18.302 20.538C18.3892 20.4395 18.4551 20.3357 18.5387 20.2354C18.9871 20.3536 19.4194 19.9526 19.3144 19.4728C19.302 19.4173 19.2753 19.3672 19.2611 19.3117C24.1967 12.3351 20.9478 3.29801 13.0746 0.0505204C12.6618 -0.119552 12.1192 0.165095 11.9092 0.526723C10.009 3.83866 8.80976 8.90144 9.61754 13.0261C7.06254 11.7891 3.9969 11.6083 1.20882 11.8159C0.0718825 11.9019 -0.355138 13.0978 0.328093 13.9553C3.37594 17.7774 5.09292 23.2394 9.75455 25.4754C12.2811 26.6874 15.5353 26.8378 17.6508 25.01C18.343 28.0229 19.2112 31.0108 20.2272 33.9594C16.4676 31.1791 10.8755 30.2661 6.80633 31.2651C5.99322 31.4638 5.54485 32.7259 6.27256 33.2988C8.76173 35.2591 10.3328 38.3329 12.3398 40.8714C11.105 42.941 9.45207 44.622 7.44686 46.0273C6.81701 46.4677 6.65866 47.2984 7.20844 47.8856C12.2704 53.2921 22.389 52.6906 25.0934 45.4491C26.8193 48.8827 28.7498 52.2287 30.8778 55.4529C27.0506 52.9752 22.606 51.7435 17.9355 53.1256C16.9712 53.412 16.6562 54.624 17.3519 55.3509C20.8926 59.0567 22.5242 63.7363 27.7819 65.369C31.0931 66.3984 34.5323 65.9652 37.4254 64.2286C39.7776 67.05 42.2934 69.7282 44.9392 72.2561C39.0659 70.3208 32.9114 70.8167 27.1894 73.7115C26.3887 74.1179 26.3656 75.2296 26.9189 75.8276C33.1605 82.6036 43.4642 83.2642 49.5723 76.3969C52.5846 78.9139 55.7463 81.2287 59.0361 83.3108C52.8586 83.3841 50.5865 93.6923 49.019 98.2628C48.6524 99.3316 49.7591 100.169 50.7164 99.9707C54.8229 99.1221 59.5343 98.0444 62.1231 94.3923C64.0429 91.6837 64.518 87.9725 62.4256 85.3445C66.9129 87.8955 71.6154 90.0134 76.4888 91.6192C77.2538 91.8717 77.7947 90.64 77.0457 90.2909C72.3058 88.0764 67.8149 85.6058 63.5536 82.9115C69.9892 83.7959 77.6631 84.1378 80.9031 77.625C81.2376 76.9536 80.6647 75.8849 79.8213 76.2125ZM3.58234 14.1629C5.85266 14.1898 7.93615 14.7108 10.2367 15.0867C11.2562 17.5178 13.2276 19.3528 16.5619 19.8058C16.5708 19.974 16.6171 20.1316 16.6954 20.2766C16.7363 20.5147 16.7897 20.7528 16.8324 20.9891C16.0139 20.6561 15.1866 20.3428 14.3984 19.9543C12.886 19.2114 11.4075 18.3682 9.96984 17.4874C9.43784 17.1616 8.78841 17.9582 9.2866 18.3772C11.484 20.2211 14.3343 22.3103 17.2381 23.1034C17.2719 23.2699 17.2986 23.4381 17.3341 23.6064C10.8808 26.4028 7.00917 19.0897 3.58234 14.1629ZM17.037 14.2847C16.4819 12.6305 16.2452 10.9781 15.498 9.40271C15.3787 9.15028 15.0496 9.26486 14.966 9.47253C14.0354 11.8052 14.7489 15.7079 16.4232 18.2411C11.0374 14.3455 11.3488 8.22115 13.3949 2.40468C19.2433 4.88594 20.9709 11.517 18.2327 16.8375C17.795 16.0033 17.3341 15.1708 17.037 14.2847ZM28.1484 19.514C29.1341 18.5508 29.9348 17.525 30.4935 16.3864C31.3261 19.1523 31.8421 22.0364 30.9596 24.8274C29.6145 29.081 25.2304 31.129 21.5171 28.3416C21.4709 28.3076 21.4264 28.2968 21.3819 28.2754C24.4707 27.2728 27.4509 24.9634 28.2694 21.6748C28.5043 20.7331 27.2819 20.2694 26.7606 21.0339C25.3443 23.1087 23.832 24.8918 21.7129 26.1163C22.9388 23.4525 26.1966 21.4188 28.1484 19.514ZM9.82927 47.1194C11.4502 45.6926 12.5586 44.0133 13.3077 42.0029C14.3948 43.1683 15.6403 44.1404 17.222 44.7043C17.9533 44.9657 18.7433 45.0642 19.528 45.0409C19.4301 45.066 19.3358 45.1018 19.2379 45.1233C17.6864 45.4813 16.1082 45.612 14.5194 45.5654C13.6564 45.5404 13.6991 46.7971 14.5194 46.8866C16.9142 47.1516 19.834 47.0281 22.1666 45.9593C18.8038 49.4914 13.95 50.6157 9.82927 47.1194ZM23.0295 41.3333C22.1274 40.7748 21.0332 40.4239 20.1614 39.8456C18.7166 38.8861 17.4818 37.6974 16.4712 36.2849C16.1936 35.8982 15.5762 36.2365 15.8236 36.6662C16.7096 38.204 17.8039 39.6308 19.1668 40.7748C19.8269 41.3298 20.6346 42.0011 21.4976 42.4522C17.7291 43.8039 12.8131 36.9097 9.5784 33.22C12.1636 32.9568 14.7507 33.4975 17.0761 34.8061C19.6827 36.2741 21.0172 38.4063 22.816 40.6137C22.9103 40.8321 22.9993 41.0523 23.0953 41.2689C23.074 41.2957 23.0509 41.3083 23.0295 41.3333ZM33.4239 39.8385C34.5003 37.8603 35.7155 36.1613 36.5287 34.1849C38.0054 36.9365 39.3666 39.8689 39.4235 42.9982C39.4893 46.5859 37.2172 50.3078 33.7602 50.9469C35.5821 48.3135 36.9841 44.8565 36.5838 41.7773C36.4877 41.0451 35.4825 40.7963 35.2387 41.5947C34.7441 43.2167 34.5982 44.9192 34.0466 46.5375C33.5324 48.0431 32.8403 49.4538 32.0823 50.8431C31.1429 47.0961 31.4792 43.4082 33.4239 39.8385ZM26.4812 61.7241C23.985 60.206 22.4975 57.5672 20.7289 55.2435C26.0542 54.5363 30.4152 57.6406 34.6658 60.761C34.7583 60.8827 34.8526 61.0044 34.9451 61.128C33.8206 60.8863 32.6392 60.8451 31.5254 60.4495C29.5789 59.7566 27.8886 58.627 26.419 57.1751C26.0685 56.8278 25.3995 57.2969 25.7126 57.7247C27.7071 60.4548 32.4186 63.9368 36.0091 62.5261C36.0162 62.5351 36.0216 62.544 36.0287 62.553C32.8794 63.5824 29.4188 63.509 26.4812 61.7241ZM54.2695 64.3593C54.4813 63.4105 54.5613 62.4778 54.5489 61.5576C57.6359 60.1487 60.6464 61.708 63.7761 62.0159C62.7192 63.2673 61.7975 64.6279 60.7246 65.9866C58.2853 69.0748 55.2196 69.8553 51.8355 69.9144C52.8728 69.2091 53.8817 68.4536 54.8887 67.7089C56.0506 66.8495 57.3387 66.0493 58.2942 64.9501C58.8564 64.3038 58.159 63.3657 57.385 63.7632C56.0933 64.4256 55.0061 65.4872 53.8959 66.4109C53.7358 66.5434 53.5738 66.6759 53.4137 66.8084C53.7731 66.0368 54.0774 65.2204 54.2695 64.3593ZM30.2853 75.2475C34.9398 73.298 39.9484 73.0921 44.731 74.6138C42.3699 74.8161 40.0231 75.1885 37.6229 75.1151C36.7902 75.09 36.8471 76.2787 37.6229 76.3807C40.4252 76.7495 43.6528 77.0431 46.4551 76.2644C41.1992 79.1968 35.1231 79.1341 30.2853 75.2475ZM48.2005 68.9746C48.2059 68.8653 48.1898 68.7579 48.1454 68.6559C49.3802 66.7976 51.3017 63.5788 50.5723 61.3446C50.4495 60.9668 49.9442 60.8863 49.7325 61.2336C49.14 62.2039 49.1524 63.4445 48.8873 64.5384C48.5902 65.7647 48.1347 66.9247 47.5831 68.0526C44.0371 64.7711 47.1081 59.7889 48.6062 56.2907C49.1062 55.1235 49.4887 54.0243 49.72 52.9054C52.5846 58.5518 54.4386 65.9723 48.2005 68.9746ZM58.4579 94.301C56.6929 95.649 54.5524 96.3132 52.3906 96.8002C53.6681 92.5913 55.2588 86.902 59.1198 85.3445C58.7657 86.0838 58.5113 86.8858 58.1679 87.6199C57.6056 88.8211 56.9775 90.0044 56.3085 91.1484C56.0417 91.6049 56.7071 92.1652 57.0594 91.732C57.9348 90.6579 58.7123 89.5515 59.3671 88.327C59.7069 87.6897 60.0877 86.995 60.3599 86.2754C62.0004 89.061 60.9666 92.3855 58.4579 94.301ZM62.4398 81.2645C64.1479 80.1402 66.0535 79.3704 68.0249 78.7976C68.5871 78.6347 68.5017 77.7037 67.8826 77.7413C65.1087 77.9078 62.7138 79.1699 60.7424 81.0783C60.6855 81.0389 60.6286 80.9996 60.5716 80.962C63.1818 77.206 67.1086 75.5626 71.7453 77.0646C73.7487 77.7127 75.5511 78.4682 77.4531 78.5398C73.3822 81.8696 67.6495 81.3666 62.4398 81.2645Z" fill="white"/>
</svg>
