<svg width="40" height="50" viewBox="0 0 40 50" fill="none" xmlns="http://www.w3.org/2000/svg">
<path d="M20 0C9.5 0 0 8.05 0 20.5C0 28.45 6.125 37.8 18.35 48.55C19.25 49.35 20.775 49.35 21.675 48.55C33.875 37.8 40 28.45 40 20.5C40 8.05 30.5 0 20 0ZM9.225 26.225C12.2 23.9 15.925 22.5 20 22.5C24.075 22.5 27.8 23.9 30.775 26.225C28.625 29.95 24.625 32.5 20 32.5C15.375 32.5 11.375 29.95 9.225 26.225ZM20 10C22.75 10 25 12.25 25 15C25 17.75 22.75 20 20 20C17.25 20 15 17.75 15 15C15 12.25 17.25 10 20 10Z" fill="black"/>
</svg>
